<?xml version="1.0" encoding="UTF-8" standalone="no"?>
<!-- Created with Inkscape (http://www.inkscape.org/) -->

<svg
   xmlns:dc="http://purl.org/dc/elements/1.1/"
   xmlns:cc="http://creativecommons.org/ns#"
   xmlns:rdf="http://www.w3.org/1999/02/22-rdf-syntax-ns#"
   xmlns:svg="http://www.w3.org/2000/svg"
   xmlns="http://www.w3.org/2000/svg"
   xmlns:sodipodi="http://sodipodi.sourceforge.net/DTD/sodipodi-0.dtd"
   xmlns:inkscape="http://www.inkscape.org/namespaces/inkscape"
   width="73.943008"
   height="68.513496"
   id="svg72021"
   version="1.1"
   inkscape:version="0.91 r13725"
   sodipodi:docname="duck2.svg">
  <defs
     id="defs72023">
    <clipPath
       clipPathUnits="userSpaceOnUse"
       id="clipPath54674">
      <path
         inkscape:connector-curvature="0"
         d="m 1142.31,266.193 2.67,0 0,-5.214 -2.67,0 0,5.214 z"
         id="path54676" />
    </clipPath>
  </defs>
  <sodipodi:namedview
     id="base"
     pagecolor="#ffffff"
     bordercolor="#666666"
     borderopacity="1.0"
     inkscape:pageopacity="0.0"
     inkscape:pageshadow="2"
     inkscape:zoom="3.959798"
     inkscape:cx="-1.5609519"
     inkscape:cy="72.549934"
     inkscape:document-units="px"
     inkscape:current-layer="layer1"
     showgrid="false"
     inkscape:window-width="1680"
     inkscape:window-height="1050"
     inkscape:window-x="0"
     inkscape:window-y="0"
     inkscape:window-maximized="0"
     fit-margin-top="0"
     fit-margin-left="0"
     fit-margin-right="0"
     fit-margin-bottom="0" />
  <metadata
     id="metadata72026">
    <rdf:RDF>
      <cc:Work
         rdf:about="">
        <dc:format>image/svg+xml</dc:format>
        <dc:type
           rdf:resource="http://purl.org/dc/dcmitype/StillImage" />
        <dc:title></dc:title>
      </cc:Work>
    </rdf:RDF>
  </metadata>
  <g
     inkscape:label="Layer 1"
     inkscape:groupmode="layer"
     id="layer1"
     transform="translate(-505.88564,-680.9626)">
    <path
       style="fill:#ebd467;fill-opacity:1;fill-rule:nonzero;stroke:none"
       d="m 549.07865,702.25472 c -1.065,1.7875 -2.13,3.575 -3.195,5.3625 5.05947,-1.20893 10.58188,-0.98424 15.25641,-3.47395 2.82109,-1.9081 4.81397,-5.97614 8.69834,-5.54222 3.85435,1.62747 6.31031,5.51461 7.91764,9.23538 2.81644,7.31089 2.64091,15.60864 0.46494,23.0509 -2.85586,8.81022 -11.02115,15.30972 -20.12127,16.62491 -11.38011,1.86723 -23.57915,3.60189 -34.64323,-0.69933 -9.04582,-3.37037 -16.28812,-12.9284 -14.72209,-22.83711 0.8536,-5.6644 4.49553,-10.82532 9.71751,-13.25814 2.87135,-3.37093 -1.75513,-7.32358 -1.7152,-11.07886 -0.78031,-3.32625 -0.9957,-9.20701 3.89366,-8.94294 3.74235,0.2135 7.12483,2.12304 10.67078,3.15547 6.09711,2.42089 11.97644,5.35033 17.77751,8.40339 z"
       id="path54636"
       inkscape:connector-curvature="0" />
    <path
       style="fill:#ecc57c;fill-opacity:1;fill-rule:nonzero;stroke:none"
       d="m 549.08965,707.03747 c -0.0345,2.90823 -4.85035,6.29224 -6.48215,5.1141 1.15364,-1.58095 2.30727,-3.1619 3.4609,-4.74285 1.00708,-0.12375 2.01417,-0.2475 3.02125,-0.37125 z"
       id="path54640"
       inkscape:connector-curvature="0" />
    <path
       style="fill:#ecc57c;fill-opacity:1;fill-rule:nonzero;stroke:none"
       d="m 512.41478,722.28897 c -0.74725,-1.53177 1.81092,-7.29634 -0.56428,-5.96087 -4.96795,7.05742 -4.16051,17.31965 1.71124,23.61668 1.72863,2.27485 5.71651,5.39129 7.2877,5.72527 -5.50584,-6.44254 -8.46288,-14.92866 -8.43466,-23.38108 z"
       id="path54644"
       inkscape:connector-curvature="0" />
    <path
       style="fill:#ecc57c;fill-opacity:1;fill-rule:nonzero;stroke:none"
       d="m 568.93702,698.4486 c -0.57724,3.31934 3.96805,5.15262 4.27046,8.55601 5.0963,11.11591 4.23157,24.82411 -2.48546,35.08274 8.10037,-6.58162 10.21942,-18.00395 8.67489,-27.87347 -0.97839,-6.35728 -4.00235,-13.3565 -10.45989,-15.76528 z"
       id="path54648"
       inkscape:connector-curvature="0" />
    <path
       style="fill:#ebd467;fill-opacity:1;fill-rule:nonzero;stroke:none"
       d="m 550.33477,696.4076 c 0.143,9.18103 -9.28445,16.3011 -18.0608,15.43943 -8.92069,-0.1912 -17.43502,-8.75559 -15.61424,-17.91669 1.68574,-9.31527 12.43573,-15.036 21.29334,-12.42924 6.65697,1.70954 12.58345,7.73171 12.3817,14.9065 z"
       id="path54652"
       inkscape:connector-curvature="0" />
    <path
       style="fill:#ecc57c;fill-opacity:1;fill-rule:nonzero;stroke:none"
       d="m 550.33477,696.4076 c 0.53459,-2.88566 -2.23937,-8.39059 -3.18032,-8.57212 2.60932,5.72993 2.43124,12.66509 -0.53468,18.22712 2.33855,-2.63308 3.73583,-6.12122 3.715,-9.655 z"
       id="path54656"
       inkscape:connector-curvature="0" />
    <path
       style="fill:#ecc57c;fill-opacity:1;fill-rule:nonzero;stroke:none"
       d="m 517.82015,696.4076 c -0.69133,-2.68826 2.02268,-8.01841 1.53049,-8.6504 -4.09344,5.25862 -3.7428,13.44849 0.83451,18.3054 -1.58227,-2.9529 -2.36788,-6.31069 -2.365,-9.655 z"
       id="path54660"
       inkscape:connector-curvature="0" />
    <path
       style="fill:#d6543b;fill-opacity:1;fill-rule:nonzero;stroke:none"
       d="m 518.5354,706.74697 c 5.29144,1.08677 2.36188,-5.6661 0.58859,-7.73409 -0.38017,-3.06908 -2.25155,-7.97671 -5.78785,-4.76025 -2.78524,0.41209 -9.39254,0.96586 -6.52771,5.17735 2.88499,3.62021 6.85638,7.14587 11.72697,7.31699 z"
       id="path54664"
       inkscape:connector-curvature="0" />
    <path
       style="fill:#f4f4f4;fill-opacity:1;fill-rule:nonzero;stroke:none"
       d="m 528.89803,698.23622 c -0.3824,5.48848 9.46851,2.44175 5.94101,-1.92969 -1.59773,-2.48887 -6.20786,-1.10754 -5.94101,1.92969 z"
       id="path54668"
       inkscape:connector-curvature="0" />
    <g
       id="g54672"
       transform="matrix(1.25,0,0,-1.25,-895.7346,1027.7186)" />
    <g
       id="g54678"
       transform="matrix(1.25,0,0,-1.25,-895.7346,1027.7186)">
      <g
         id="g54680"
         clip-path="url(#clipPath54674)">
        <g
           id="g54682"
           transform="translate(1142.3135,260.9785)">
          <path
             style="fill:#fefdf7;fill-opacity:1;fill-rule:nonzero;stroke:none"
             d="M 0,0 C 3.8357087,-0.54945034 1.820774,5.6819187 1.0887728,5.0656991 3.3336641,3.9700406 2.9638798,-0.41175601 0,0 Z"
             id="path54684"
             inkscape:connector-curvature="0" />
        </g>
      </g>
    </g>
    <path
       style="fill:#231f20;fill-opacity:1;fill-rule:nonzero;stroke:none"
       d="m 529.42777,698.4486 c 0.5785,5.4312 7.32386,-2.19989 1.7569,-2.05607 -0.99389,0.0987 -1.77183,1.07904 -1.7569,2.05607 z"
       id="path54688"
       inkscape:connector-curvature="0" />
    <path
       style="fill:#f4f4f4;fill-opacity:1;fill-rule:nonzero;stroke:none"
       d="m 531.52003,697.7601 c -1.86642,2.7923 -1.45759,-2.70216 0,0 z"
       id="path54692"
       inkscape:connector-curvature="0" />
    <path
       style="fill:#c8ac82;fill-opacity:1;fill-rule:nonzero;stroke:none"
       d="m 538.73315,744.49472 c -4.23036,-2.87366 -4.09175,-10.09452 0.53624,-12.52767 5.98033,-4.1929 13.80523,-3.47383 20.1763,-6.80071 3.09803,-1.92814 9.09012,-0.72691 7.72665,3.92421 -1.67942,4.71421 -6.64678,7.26675 -11.19822,8.50291 4.27444,-1.82708 9.27203,-4.27061 10.4609,-9.20864 -0.47683,-5.49147 -7.25634,-2.13584 -10.19517,-0.70314 -6.31405,2.083 -14.01079,1.66569 -18.80611,6.99193 -2.42814,2.90147 -1.31353,7.43932 1.29941,9.82111 z"
       id="path54696"
       inkscape:connector-curvature="0" />
    <path
       style="fill:#c8ac82;fill-opacity:1;fill-rule:nonzero;stroke:none"
       d="m 566.02565,731.82747 c 1.67519,4.17703 -2.36554,7.97125 -6.09918,9.00953 -3.55531,0.47282 3.56406,-2.353 4.13277,-3.77791 1.32677,-1.386 2.04563,-3.31612 1.96641,-5.23162 z"
       id="path54700"
       inkscape:connector-curvature="0" />
    <path
       style="fill:#c8ac82;fill-opacity:1;fill-rule:nonzero;stroke:none"
       d="m 564.6279,738.2081 c 1.01774,2.6936 -4.41407,6.60648 -5.03347,5.25097 1.98581,-1.40983 3.81523,-3.11974 5.03347,-5.25097 z"
       id="path54704"
       inkscape:connector-curvature="0" />
  </g>
</svg>
