<?xml version="1.0" encoding="UTF-8" standalone="no"?>
<svg
   xmlns:dc="http://purl.org/dc/elements/1.1/"
   xmlns:cc="http://creativecommons.org/ns#"
   xmlns:rdf="http://www.w3.org/1999/02/22-rdf-syntax-ns#"
   xmlns:svg="http://www.w3.org/2000/svg"
   xmlns="http://www.w3.org/2000/svg"
   xmlns:sodipodi="http://sodipodi.sourceforge.net/DTD/sodipodi-0.dtd"
   xmlns:inkscape="http://www.inkscape.org/namespaces/inkscape"
   viewBox="0 0 510.4 405.52346"
   width="4400"
   height="3495.8918"
   id="svg2"
   version="1.1"
   inkscape:version="0.91 r13725"
   sodipodi:docname="safe_closed2.svg">
  <metadata
     id="metadata24">
    <rdf:RDF>
      <cc:Work
         rdf:about="">
        <dc:format>image/svg+xml</dc:format>
        <dc:type
           rdf:resource="http://purl.org/dc/dcmitype/StillImage" />
        <dc:title></dc:title>
      </cc:Work>
    </rdf:RDF>
  </metadata>
  <defs
     id="defs22" />
  <sodipodi:namedview
     pagecolor="#ffffff"
     bordercolor="#666666"
     borderopacity="1"
     objecttolerance="10"
     gridtolerance="10"
     guidetolerance="10"
     inkscape:pageopacity="0"
     inkscape:pageshadow="2"
     inkscape:window-width="1680"
     inkscape:window-height="987"
     id="namedview20"
     showgrid="false"
     inkscape:zoom="1"
     inkscape:cx="2199.9957"
     inkscape:cy="1748.3036"
     inkscape:window-x="-8"
     inkscape:window-y="-8"
     inkscape:window-maximized="1"
     inkscape:current-layer="svg2"
     borderlayer="true"
     fit-margin-top="0"
     fit-margin-left="0"
     fit-margin-right="0"
     fit-margin-bottom="0" />
  <g
     id="g4"
     transform="matrix(8.7998485,0,0,8.7998485,0,-52.799091)">
    <path
       style="fill:#b6c8cc"
       d="M 29,6 1,6 C 0.478,6 0,6.506 0,7.027 L 0,51 c 0,0.521 0.478,1 1,1 l 28,0 z"
       id="path6"
       inkscape:connector-curvature="0" />
    <path
       style="fill:#b6c8cc"
       d="m 29,6 0,4 0,38 0,4 28.057,0.083 c 0.520998,0.0015 0.944,-0.422 0.944,-0.944 l 0,-44.112 c 0,-0.521 -0.422,-0.944 -0.944,-0.944 z"
       id="path8"
       inkscape:connector-curvature="0" />
    <path
       style="fill:#e3e9ec"
       d="m 5,10 0,38 48,0 0,-38 z"
       id="path10"
       inkscape:connector-curvature="0" />
    <path
       style="fill:#a3b8be"
       d="m 52,16.083 3,0 c 0.553,0 1,-0.447 1,-1 0,-0.553 -0.447,-1 -1,-1 l -3,0 c -0.553,0 -1,0.447 -1,1 0,0.553 0.447,1 1,1 z"
       id="path12"
       inkscape:connector-curvature="0" />
    <path
       style="fill:#a3b8be"
       d="m 55,17.083 -3,0 c -0.553,0 -1,0.447 -1,1 0,0.553 0.447,1 1,1 l 3,0 c 0.553,0 1,-0.447 1,-1 0,-0.553 -0.447,-1 -1,-1 z"
       id="path14"
       inkscape:connector-curvature="0" />
    <path
       style="fill:#a3b8be"
       d="m 55,39.083 -3,0 c -0.553,0 -1,0.447 -1,1 0,0.553 0.447,1 1,1 l 3,0 c 0.553,0 1,-0.447 1,-1 0,-0.553 -0.447,-1 -1,-1 z"
       id="path16"
       inkscape:connector-curvature="0" />
    <path
       style="fill:#a3b8be"
       d="m 55,42.083 -3,0 c -0.553,0 -1,0.447 -1,1 0,0.553 0.447,1 1,1 l 3,0 c 0.553,0 1,-0.447 1,-1 0,-0.553 -0.447,-1 -1,-1 z"
       id="path18"
       inkscape:connector-curvature="0" />
  </g>
</svg>
