<?xml version="1.0" encoding="UTF-8" standalone="no"?>
<svg
   xmlns:dc="http://purl.org/dc/elements/1.1/"
   xmlns:cc="http://creativecommons.org/ns#"
   xmlns:rdf="http://www.w3.org/1999/02/22-rdf-syntax-ns#"
   xmlns:svg="http://www.w3.org/2000/svg"
   xmlns="http://www.w3.org/2000/svg"
   xmlns:sodipodi="http://sodipodi.sourceforge.net/DTD/sodipodi-0.dtd"
   xmlns:inkscape="http://www.inkscape.org/namespaces/inkscape"
   viewBox="0 0 510.4 475.19179"
   width="4400"
   height="4096.481"
   id="svg2"
   version="1.1"
   inkscape:version="0.91 r13725"
   sodipodi:docname="safe_open2.svg">
  <metadata
     id="metadata53">
    <rdf:RDF>
      <cc:Work
         rdf:about="">
        <dc:format>image/svg+xml</dc:format>
        <dc:type
           rdf:resource="http://purl.org/dc/dcmitype/StillImage" />
        <dc:title></dc:title>
      </cc:Work>
    </rdf:RDF>
  </metadata>
  <defs
     id="defs51" />
  <sodipodi:namedview
     pagecolor="#ffffff"
     bordercolor="#666666"
     borderopacity="1"
     objecttolerance="10"
     gridtolerance="10"
     guidetolerance="10"
     inkscape:pageopacity="0"
     inkscape:pageshadow="2"
     inkscape:window-width="1680"
     inkscape:window-height="987"
     id="namedview49"
     showgrid="false"
     fit-margin-top="0"
     fit-margin-left="0"
     fit-margin-right="0"
     fit-margin-bottom="0"
     inkscape:zoom="0.472"
     inkscape:cx="4242.5292"
     inkscape:cy="3580.6003"
     inkscape:window-x="-8"
     inkscape:window-y="-8"
     inkscape:window-maximized="1"
     inkscape:current-layer="svg2" />
  <path
     inkscape:connector-curvature="0"
     d="M 413.59288,43.999242 8.307057,44.72963 C 3.7135435,44.737908 0,48.451966 0,53.036687 L 0,441.2244 c 0,4.58472 3.7135361,8.30706 8.307057,8.30706 l 405.285823,-0.73919 z"
     style="fill:#b6c8cc"
     id="path4" />
  <path
     inkscape:connector-curvature="0"
     d="m 466.39197,43.999242 0,35.929782 0,333.663856 0,35.19939 35.19939,0 c 4.58473,0 8.79975,-4.20632 8.79985,-8.79985 l 0.009,-386.955733 c 1.1e-4,-4.584721 -4.21512,-9.037445 -8.80865,-9.037445 z"
     style="fill:#b6c8cc"
     id="path6" />
  <rect
     width="43.999241"
     height="464.42453"
     x="413.59286"
     y="8.7998486"
     style="fill:#808080"
     id="rect8" />
  <path
     inkscape:connector-curvature="0"
     d="m 457.59212,0 0,475.19182 8.79985,0 0,-475.19182 z"
     style="fill:#e3e9ec"
     id="path10" />
  <path
     inkscape:connector-curvature="0"
     d="M 105.59818,184.79682 35.199394,79.198636 l 0,334.394244 70.398786,-58.57399 z"
     style="fill:#535d6c"
     id="path12" />
  <path
     inkscape:connector-curvature="0"
     d="m 466.39197,132.72811 19.79966,0 c 3.64974,0 6.59989,-3.93353 6.59989,-8.79984 0,-4.86632 -2.95015,-8.79985 -6.59989,-8.79985 l -19.79966,0 z"
     style="fill:#a3b8be"
     id="path14" />
  <path
     inkscape:connector-curvature="0"
     d="m 486.19163,141.52796 -19.79966,0 0,17.5997 19.79966,0 c 3.64974,0 6.59989,-3.93353 6.59989,-8.79985 0,-4.86631 -2.95015,-8.79985 -6.59989,-8.79985 z"
     style="fill:#a3b8be"
     id="path16" />
  <path
     inkscape:connector-curvature="0"
     d="m 486.19163,335.12463 -19.79966,0 0,17.5997 19.79966,0 c 3.64974,0 6.59989,-3.93353 6.59989,-8.79985 0,-4.86632 -2.95015,-8.79985 -6.59989,-8.79985 z"
     style="fill:#a3b8be"
     id="path18" />
  <path
     inkscape:connector-curvature="0"
     d="m 486.19163,361.52418 -19.79966,0 0,17.59969 19.79966,0 c 3.64974,0 6.59989,-3.93353 6.59989,-8.79985 0,-4.86631 -2.95015,-8.79984 -6.59989,-8.79984 z"
     style="fill:#a3b8be"
     id="path20" />
  <ellipse
     id="circle24"
     style="fill:#333333"
     cy="95.668198"
     cx="435.02328"
     rx="7.0774937"
     ry="6.3837671" />
  <ellipse
     id="circle26"
     style="fill:#333333"
     cy="133.97081"
     cx="435.02328"
     rx="7.0774937"
     ry="6.3837671" />
  <ellipse
     id="circle28"
     style="fill:#333333"
     cy="351.01889"
     cx="435.02328"
     rx="7.0774937"
     ry="6.3837671" />
  <ellipse
     id="circle30"
     style="fill:#333333"
     cy="312.71628"
     cx="435.02328"
     rx="7.0774937"
     ry="6.3837671" />
  <ellipse
     id="circle32"
     style="fill:#333333"
     cy="172.27341"
     cx="435.02328"
     rx="7.0774937"
     ry="6.3837671" />
  <ellipse
     style="fill:#333333"
     id="circle3192"
     cy="389.32147"
     cx="435.02328"
     rx="7.0774937"
     ry="6.3837671" />
  <path
     inkscape:connector-curvature="0"
     d="m 351.99394,334.39424 c -234.66263,111.46475 -117.33131,55.73237 0,0 z"
     style="fill:#b5c3c6"
     id="path35" />
  <rect
     width="308.08386"
     height="172.13521"
     x="105.50902"
     y="184.79681"
     style="fill:#373e48;fill-opacity:1"
     id="rect37" />
  <path
     inkscape:connector-curvature="0"
     d="m 413.59288,79.198636 -378.393486,0 70.398786,105.598184 c 83.40232,0 236.06439,0 307.9947,0 z"
     style="fill:#000000"
     id="path39" />
  <path
     inkscape:connector-curvature="0"
     d="m 105.52575,354.76323 -70.326356,58.82965 c 112.784196,0.35463 281.070416,0.43119 378.393486,0 l 0,-58.81485 z"
     style="fill:#000000"
     id="path41" />
  <rect
     id="rect45"
     style="fill:#a3b8be"
     y="249.47571"
     x="466.39197"
     height="70.398788"
     width="8.7998486" />
  <rect
     id="rect47"
     style="fill:#e3e9ec"
     y="271.03534"
     x="475.19183"
     height="28.159515"
     width="17.599697" />
</svg>
